<?xml version="1.0" encoding="UTF-8" standalone="no"?>
<!DOCTYPE svg PUBLIC "-//W3C//DTD SVG 1.1//EN"
 "http://www.w3.org/Graphics/SVG/1.1/DTD/svg11.dtd">
<!-- Generated by graphviz version 2.38.0 (20140413.2041)
 -->
<!-- Title: G Pages: 1 -->
<svg width="1298pt" height="716pt"
 viewBox="0.00 0.00 1298.42 716.00" xmlns="http://www.w3.org/2000/svg" xmlns:xlink="http://www.w3.org/1999/xlink">
<g id="graph0" class="graph" transform="scale(1 1) rotate(0) translate(4 712)">
<title>G</title>
<polygon fill="white" stroke="none" points="-4,4 -4,-712 1294.42,-712 1294.42,4 -4,4"/>
<!-- 1 -->
<g id="node1" class="node"><title>1</title>
<ellipse fill="azure" stroke="blue" cx="835.799" cy="-394.195" rx="47.3916" ry="18"/>
<text text-anchor="middle" x="835.799" y="-390.495" font-family="ヒラギノ丸ゴ ProN" font-size="14.00">天海春香</text>
</g>
<!-- 2 -->
<g id="node2" class="node"><title>2</title>
<ellipse fill="azure" stroke="blue" cx="683.273" cy="-275.768" rx="47.3916" ry="18"/>
<text text-anchor="middle" x="683.273" y="-272.068" font-family="ヒラギノ丸ゴ ProN" font-size="14.00">如月千早</text>
</g>
<!-- 1&#45;&gt;2 -->
<g id="edge2" class="edge"><title>1&#45;&gt;2</title>
<path fill="none" stroke="black" d="M821.059,-377.06C797.633,-355.628 751.496,-319.325 719.05,-296.413"/>
<polygon fill="black" stroke="black" points="720.914,-293.447 710.706,-290.612 716.918,-299.194 720.914,-293.447"/>
</g>
<!-- 4 -->
<g id="node4" class="node"><title>4</title>
<ellipse fill="azure" stroke="blue" cx="784.589" cy="-491.794" rx="47.3916" ry="18"/>
<text text-anchor="middle" x="784.589" y="-488.094" font-family="ヒラギノ丸ゴ ProN" font-size="14.00">萩原雪歩</text>
</g>
<!-- 1&#45;&gt;4 -->
<g id="edge3" class="edge"><title>1&#45;&gt;4</title>
<path fill="none" stroke="black" d="M826.407,-412.096C818.683,-426.817 807.615,-447.91 798.806,-464.699"/>
<polygon fill="black" stroke="black" points="795.469,-463.525 793.922,-474.006 801.668,-466.777 795.469,-463.525"/>
</g>
<!-- 13 -->
<g id="node7" class="node"><title>13</title>
<ellipse fill="azure" stroke="blue" cx="961.675" cy="-293.519" rx="47.3916" ry="18"/>
<text text-anchor="middle" x="961.675" y="-289.819" font-family="ヒラギノ丸ゴ ProN" font-size="14.00">我那覇響</text>
</g>
<!-- 1&#45;&gt;13 -->
<g id="edge18" class="edge"><title>1&#45;&gt;13</title>
<path fill="none" stroke="black" d="M856.304,-377.795C877.242,-361.049 909.91,-334.921 933.32,-316.198"/>
<polygon fill="black" stroke="black" points="935.556,-318.891 941.18,-309.912 931.184,-313.424 935.556,-318.891"/>
</g>
<!-- 7 -->
<g id="node8" class="node"><title>7</title>
<ellipse fill="azure" stroke="blue" cx="938.692" cy="-370.152" rx="47.3916" ry="18"/>
<text text-anchor="middle" x="938.692" y="-366.452" font-family="ヒラギノ丸ゴ ProN" font-size="14.00">水瀬伊織</text>
</g>
<!-- 1&#45;&gt;7 -->
<g id="edge6" class="edge"><title>1&#45;&gt;7</title>
<path fill="none" stroke="black" d="M876.465,-384.692C880.336,-383.788 884.292,-382.863 888.24,-381.941"/>
<polygon fill="black" stroke="black" points="889.043,-385.348 897.985,-379.664 887.451,-378.531 889.043,-385.348"/>
</g>
<!-- 8 -->
<g id="node9" class="node"><title>8</title>
<ellipse fill="azure" stroke="blue" cx="820.12" cy="-284.92" rx="47.3916" ry="18"/>
<text text-anchor="middle" x="820.12" y="-281.22" font-family="ヒラギノ丸ゴ ProN" font-size="14.00">四条貴音</text>
</g>
<!-- 1&#45;&gt;8 -->
<g id="edge8" class="edge"><title>1&#45;&gt;8</title>
<path fill="none" stroke="black" d="M833.21,-376.15C830.748,-358.988 827.006,-332.911 824.152,-313.025"/>
<polygon fill="black" stroke="black" points="827.598,-312.393 822.713,-302.991 820.669,-313.387 827.598,-312.393"/>
</g>
<!-- 10 -->
<g id="node11" class="node"><title>10</title>
<ellipse fill="azure" stroke="blue" cx="971.834" cy="-497.297" rx="56.59" ry="18"/>
<text text-anchor="middle" x="971.834" y="-493.597" font-family="ヒラギノ丸ゴ ProN" font-size="14.00">三浦あずさ</text>
</g>
<!-- 1&#45;&gt;10 -->
<g id="edge11" class="edge"><title>1&#45;&gt;10</title>
<path fill="none" stroke="black" d="M857.055,-410.305C879.747,-427.503 915.898,-454.903 941.56,-474.352"/>
<polygon fill="black" stroke="black" points="939.743,-477.367 949.827,-480.617 943.971,-471.788 939.743,-477.367"/>
</g>
<!-- 14 -->
<g id="node14" class="node"><title>14</title>
<ellipse fill="azure" stroke="blue" cx="737.835" cy="-350.16" rx="47.3916" ry="18"/>
<text text-anchor="middle" x="737.835" y="-346.46" font-family="ヒラギノ丸ゴ ProN" font-size="14.00">春日未来</text>
</g>
<!-- 1&#45;&gt;14 -->
<g id="edge19" class="edge"><title>1&#45;&gt;14</title>
<path fill="none" stroke="black" d="M805.072,-380.383C796.409,-376.489 786.858,-372.196 777.741,-368.098"/>
<polygon fill="black" stroke="black" points="779.01,-364.831 768.454,-363.923 776.14,-371.216 779.01,-364.831"/>
</g>
<!-- 36 -->
<g id="node38" class="node"><title>36</title>
<ellipse fill="azure" stroke="blue" cx="858.539" cy="-535.803" rx="47.3916" ry="18"/>
<text text-anchor="middle" x="858.539" y="-532.103" font-family="ヒラギノ丸ゴ ProN" font-size="14.00">矢吹可奈</text>
</g>
<!-- 1&#45;&gt;36 -->
<g id="edge40" class="edge"><title>1&#45;&gt;36</title>
<path fill="none" stroke="black" d="M838.726,-412.418C842.597,-436.528 849.461,-479.274 854.006,-507.579"/>
<polygon fill="black" stroke="black" points="850.582,-508.332 855.624,-517.65 857.494,-507.222 850.582,-508.332"/>
</g>
<!-- 2&#45;&gt;1 -->
<g id="edge1" class="edge"><title>2&#45;&gt;1</title>
<path fill="none" stroke="black" d="M698.014,-292.903C721.44,-314.335 767.577,-350.638 800.023,-373.55"/>
<polygon fill="black" stroke="black" points="798.158,-376.517 808.367,-379.351 802.154,-370.769 798.158,-376.517"/>
</g>
<!-- 5 -->
<g id="node5" class="node"><title>5</title>
<ellipse fill="azure" stroke="blue" cx="651.819" cy="-159.377" rx="56.59" ry="18"/>
<text text-anchor="middle" x="651.819" y="-155.677" font-family="ヒラギノ丸ゴ ProN" font-size="14.00">高槻やよい</text>
</g>
<!-- 2&#45;&gt;5 -->
<g id="edge4" class="edge"><title>2&#45;&gt;5</title>
<path fill="none" stroke="black" d="M678.427,-257.837C673.339,-239.01 665.272,-209.156 659.352,-187.253"/>
<polygon fill="black" stroke="black" points="662.71,-186.26 656.722,-177.52 655.952,-188.087 662.71,-186.26"/>
</g>
<!-- 2&#45;&gt;8 -->
<g id="edge9" class="edge"><title>2&#45;&gt;8</title>
<path fill="none" stroke="black" d="M730.368,-278.918C740.797,-279.615 751.96,-280.362 762.747,-281.083"/>
<polygon fill="black" stroke="black" points="762.727,-284.59 772.938,-281.765 763.194,-277.605 762.727,-284.59"/>
</g>
<!-- 15 -->
<g id="node15" class="node"><title>15</title>
<ellipse fill="azure" stroke="blue" cx="499.726" cy="-265.625" rx="47.3916" ry="18"/>
<text text-anchor="middle" x="499.726" y="-261.925" font-family="ヒラギノ丸ゴ ProN" font-size="14.00">最上静香</text>
</g>
<!-- 2&#45;&gt;15 -->
<g id="edge20" class="edge"><title>2&#45;&gt;15</title>
<path fill="none" stroke="black" d="M636.005,-273.156C611.919,-271.825 582.437,-270.196 557.063,-268.794"/>
<polygon fill="black" stroke="black" points="557.011,-265.286 546.833,-268.228 556.625,-272.275 557.011,-265.286"/>
</g>
<!-- 3 -->
<g id="node3" class="node"><title>3</title>
<ellipse fill="azure" stroke="blue" cx="47.4458" cy="-321.029" rx="47.3916" ry="18"/>
<text text-anchor="middle" x="47.4458" y="-317.329" font-family="ヒラギノ丸ゴ ProN" font-size="14.00">星井美希</text>
</g>
<!-- 16 -->
<g id="node18" class="node"><title>16</title>
<ellipse fill="azure" stroke="blue" cx="166.739" cy="-329.549" rx="38.1938" ry="18"/>
<text text-anchor="middle" x="166.739" y="-325.849" font-family="ヒラギノ丸ゴ ProN" font-size="14.00">伊吹翼</text>
</g>
<!-- 3&#45;&gt;16 -->
<g id="edge23" class="edge"><title>3&#45;&gt;16</title>
<path fill="none" stroke="black" d="M94.2513,-324.372C102.149,-324.936 110.361,-325.522 118.299,-326.089"/>
<polygon fill="black" stroke="black" points="118.302,-329.598 128.526,-326.819 118.801,-322.616 118.302,-329.598"/>
</g>
<!-- 30 -->
<g id="node30" class="node"><title>30</title>
<ellipse fill="azure" stroke="blue" cx="726.612" cy="-425.705" rx="38.1938" ry="18"/>
<text text-anchor="middle" x="726.612" y="-422.005" font-family="ヒラギノ丸ゴ ProN" font-size="14.00">中谷育</text>
</g>
<!-- 4&#45;&gt;30 -->
<g id="edge32" class="edge"><title>4&#45;&gt;30</title>
<path fill="none" stroke="black" d="M769.356,-474.43C762.915,-467.087 755.293,-458.399 748.283,-450.408"/>
<polygon fill="black" stroke="black" points="750.768,-447.934 741.542,-442.725 745.506,-452.55 750.768,-447.934"/>
</g>
<!-- 4&#45;&gt;36 -->
<g id="edge41" class="edge"><title>4&#45;&gt;36</title>
<path fill="none" stroke="black" d="M810.453,-507.186C814.869,-509.814 819.519,-512.581 824.115,-515.317"/>
<polygon fill="black" stroke="black" points="822.431,-518.387 832.814,-520.494 826.011,-512.372 822.431,-518.387"/>
</g>
<!-- 6 -->
<g id="node6" class="node"><title>6</title>
<ellipse fill="azure" stroke="blue" cx="1128.89" cy="-282.203" rx="38.1938" ry="18"/>
<text text-anchor="middle" x="1128.89" y="-278.503" font-family="ヒラギノ丸ゴ ProN" font-size="14.00">菊地真</text>
</g>
<!-- 12 -->
<g id="node13" class="node"><title>12</title>
<ellipse fill="azure" stroke="blue" cx="1242.98" cy="-315.613" rx="47.3916" ry="18"/>
<text text-anchor="middle" x="1242.98" y="-311.913" font-family="ヒラギノ丸ゴ ProN" font-size="14.00">双海真美</text>
</g>
<!-- 6&#45;&gt;12 -->
<g id="edge16" class="edge"><title>6&#45;&gt;12</title>
<path fill="none" stroke="black" d="M1161.58,-291.777C1172.07,-294.849 1183.92,-298.317 1195.25,-301.638"/>
<polygon fill="black" stroke="black" points="1194.46,-305.052 1205.04,-304.504 1196.43,-298.335 1194.46,-305.052"/>
</g>
<!-- 23 -->
<g id="node25" class="node"><title>23</title>
<ellipse fill="azure" stroke="blue" cx="1052.97" cy="-343.337" rx="47.3916" ry="18"/>
<text text-anchor="middle" x="1052.97" y="-339.637" font-family="ヒラギノ丸ゴ ProN" font-size="14.00">野々原茜</text>
</g>
<!-- 6&#45;&gt;23 -->
<g id="edge27" class="edge"><title>6&#45;&gt;23</title>
<path fill="none" stroke="black" d="M1109.34,-297.946C1100.77,-304.842 1090.56,-313.065 1081.2,-320.606"/>
<polygon fill="black" stroke="black" points="1078.84,-318.009 1073.25,-327.007 1083.23,-323.461 1078.84,-318.009"/>
</g>
<!-- 35 -->
<g id="node37" class="node"><title>35</title>
<ellipse fill="azure" stroke="blue" cx="1098.57" cy="-218.926" rx="56.59" ry="18"/>
<text text-anchor="middle" x="1098.57" y="-215.226" font-family="ヒラギノ丸ゴ ProN" font-size="14.00">木下ひなた</text>
</g>
<!-- 6&#45;&gt;35 -->
<g id="edge38" class="edge"><title>6&#45;&gt;35</title>
<path fill="none" stroke="black" d="M1120.44,-264.577C1117.73,-258.913 1114.66,-252.499 1111.69,-246.306"/>
<polygon fill="black" stroke="black" points="1114.66,-244.404 1107.18,-236.897 1108.35,-247.428 1114.66,-244.404"/>
</g>
<!-- 13&#45;&gt;6 -->
<g id="edge5" class="edge"><title>13&#45;&gt;6</title>
<path fill="none" stroke="black" d="M1008.7,-290.337C1031.23,-288.812 1058.18,-286.988 1080.85,-285.454"/>
<polygon fill="black" stroke="black" points="1081.18,-288.939 1090.93,-284.772 1080.71,-281.955 1081.18,-288.939"/>
</g>
<!-- 13&#45;&gt;7 -->
<g id="edge7" class="edge"><title>13&#45;&gt;7</title>
<path fill="none" stroke="black" d="M956.229,-311.68C953.481,-320.842 950.088,-332.153 947.022,-342.378"/>
<polygon fill="black" stroke="black" points="943.62,-341.537 944.1,-352.121 950.325,-343.548 943.62,-341.537"/>
</g>
<!-- 13&#45;&gt;8 -->
<g id="edge10" class="edge"><title>13&#45;&gt;8</title>
<path fill="none" stroke="black" d="M914.539,-290.656C902.601,-289.931 889.649,-289.144 877.274,-288.392"/>
<polygon fill="black" stroke="black" points="877.244,-284.884 867.05,-287.771 876.819,-291.871 877.244,-284.884"/>
</g>
<!-- 11 -->
<g id="node12" class="node"><title>11</title>
<ellipse fill="azure" stroke="blue" cx="1155.88" cy="-376.68" rx="47.3916" ry="18"/>
<text text-anchor="middle" x="1155.88" y="-372.98" font-family="ヒラギノ丸ゴ ProN" font-size="14.00">双海亜美</text>
</g>
<!-- 13&#45;&gt;11 -->
<g id="edge15" class="edge"><title>13&#45;&gt;11</title>
<path fill="none" stroke="black" d="M993.309,-307.066C1026.46,-321.261 1078.67,-343.617 1114.94,-359.15"/>
<polygon fill="black" stroke="black" points="1113.69,-362.421 1124.26,-363.14 1116.44,-355.986 1113.69,-362.421"/>
</g>
<!-- 13&#45;&gt;23 -->
<g id="edge29" class="edge"><title>13&#45;&gt;23</title>
<path fill="none" stroke="black" d="M989.067,-308.466C997.734,-313.195 1007.45,-318.498 1016.64,-323.513"/>
<polygon fill="black" stroke="black" points="1015.14,-326.683 1025.6,-328.401 1018.5,-320.538 1015.14,-326.683"/>
</g>
<!-- 13&#45;&gt;30 -->
<g id="edge33" class="edge"><title>13&#45;&gt;30</title>
<path fill="none" stroke="black" d="M934.71,-308.683C891.636,-332.905 807.382,-380.285 760.369,-406.722"/>
<polygon fill="black" stroke="black" points="758.487,-403.765 751.486,-411.718 761.918,-409.867 758.487,-403.765"/>
</g>
<!-- 34 -->
<g id="node36" class="node"><title>34</title>
<ellipse fill="azure" stroke="blue" cx="877.984" cy="-190.62" rx="38.1938" ry="18"/>
<text text-anchor="middle" x="877.984" y="-186.92" font-family="ヒラギノ丸ゴ ProN" font-size="14.00">舞浜歩</text>
</g>
<!-- 13&#45;&gt;34 -->
<g id="edge37" class="edge"><title>13&#45;&gt;34</title>
<path fill="none" stroke="black" d="M947.478,-276.064C933.91,-259.381 913.321,-234.068 898.073,-215.32"/>
<polygon fill="black" stroke="black" points="900.719,-213.026 891.694,-207.477 895.288,-217.443 900.719,-213.026"/>
</g>
<!-- 13&#45;&gt;35 -->
<g id="edge39" class="edge"><title>13&#45;&gt;35</title>
<path fill="none" stroke="black" d="M989.049,-278.604C1009.62,-267.393 1038.05,-251.902 1060.79,-239.513"/>
<polygon fill="black" stroke="black" points="1062.72,-242.445 1069.83,-234.587 1059.37,-236.299 1062.72,-242.445"/>
</g>
<!-- 37 -->
<g id="node39" class="node"><title>37</title>
<ellipse fill="azure" stroke="blue" cx="986.545" cy="-207.789" rx="47.3916" ry="18"/>
<text text-anchor="middle" x="986.545" y="-204.089" font-family="ヒラギノ丸ゴ ProN" font-size="14.00">横山奈緒</text>
</g>
<!-- 13&#45;&gt;37 -->
<g id="edge42" class="edge"><title>13&#45;&gt;37</title>
<path fill="none" stroke="black" d="M966.949,-275.338C970.28,-263.858 974.649,-248.795 978.417,-235.807"/>
<polygon fill="black" stroke="black" points="981.854,-236.523 981.278,-225.944 975.131,-234.573 981.854,-236.523"/>
</g>
<!-- 38 -->
<g id="node40" class="node"><title>38</title>
<ellipse fill="azure" stroke="blue" cx="1054.19" cy="-143.632" rx="56.59" ry="18"/>
<text text-anchor="middle" x="1054.19" y="-139.932" font-family="ヒラギノ丸ゴ ProN" font-size="14.00">二階堂千鶴</text>
</g>
<!-- 13&#45;&gt;38 -->
<g id="edge43" class="edge"><title>13&#45;&gt;38</title>
<path fill="none" stroke="black" d="M972.651,-275.737C988.787,-249.594 1019.03,-200.604 1037.8,-170.189"/>
<polygon fill="black" stroke="black" points="1040.95,-171.739 1043.23,-161.392 1035,-168.063 1040.95,-171.739"/>
</g>
<!-- 39 -->
<g id="node41" class="node"><title>39</title>
<ellipse fill="azure" stroke="blue" cx="933.06" cy="-131.419" rx="56.59" ry="18"/>
<text text-anchor="middle" x="933.06" y="-127.719" font-family="ヒラギノ丸ゴ ProN" font-size="14.00">馬場このみ</text>
</g>
<!-- 13&#45;&gt;39 -->
<g id="edge44" class="edge"><title>13&#45;&gt;39</title>
<path fill="none" stroke="black" d="M958.503,-275.553C953.54,-247.436 943.898,-192.815 938.014,-159.481"/>
<polygon fill="black" stroke="black" points="941.431,-158.706 936.246,-149.467 934.538,-159.923 941.431,-158.706"/>
</g>
<!-- 40 -->
<g id="node42" class="node"><title>40</title>
<ellipse fill="azure" stroke="blue" cx="1024.74" cy="-414.194" rx="38.1938" ry="18"/>
<text text-anchor="middle" x="1024.74" y="-410.494" font-family="ヒラギノ丸ゴ ProN" font-size="14.00">大神環</text>
</g>
<!-- 13&#45;&gt;40 -->
<g id="edge46" class="edge"><title>13&#45;&gt;40</title>
<path fill="none" stroke="black" d="M970.981,-311.325C981.52,-331.493 998.801,-364.56 1010.92,-387.746"/>
<polygon fill="black" stroke="black" points="1007.87,-389.465 1015.6,-396.707 1014.07,-386.223 1007.87,-389.465"/>
</g>
<!-- 9 -->
<g id="node10" class="node"><title>9</title>
<ellipse fill="azure" stroke="blue" cx="1092.52" cy="-464.302" rx="47.3916" ry="18"/>
<text text-anchor="middle" x="1092.52" y="-460.602" font-family="ヒラギノ丸ゴ ProN" font-size="14.00">秋月律子</text>
</g>
<!-- 9&#45;&gt;10 -->
<g id="edge12" class="edge"><title>9&#45;&gt;10</title>
<path fill="none" stroke="black" d="M1054,-474.832C1044.69,-477.378 1034.58,-480.144 1024.73,-482.836"/>
<polygon fill="black" stroke="black" points="1023.74,-479.479 1015.01,-485.492 1025.58,-486.231 1023.74,-479.479"/>
</g>
<!-- 9&#45;&gt;11 -->
<g id="edge13" class="edge"><title>9&#45;&gt;11</title>
<path fill="none" stroke="black" d="M1105.34,-446.57C1114.5,-433.898 1126.98,-416.65 1137.24,-402.459"/>
<polygon fill="black" stroke="black" points="1140.27,-404.241 1143.29,-394.086 1134.6,-400.139 1140.27,-404.241"/>
</g>
<!-- 9&#45;&gt;23 -->
<g id="edge28" class="edge"><title>9&#45;&gt;23</title>
<path fill="none" stroke="black" d="M1086.6,-446.192C1080.11,-426.327 1069.6,-394.208 1062.06,-371.145"/>
<polygon fill="black" stroke="black" points="1065.37,-369.988 1058.93,-361.571 1058.71,-372.163 1065.37,-369.988"/>
</g>
<!-- 9&#45;&gt;40 -->
<g id="edge45" class="edge"><title>9&#45;&gt;40</title>
<path fill="none" stroke="black" d="M1070.7,-448.171C1065.29,-444.173 1059.41,-439.826 1053.72,-435.619"/>
<polygon fill="black" stroke="black" points="1055.72,-432.741 1045.59,-429.611 1051.56,-438.37 1055.72,-432.741"/>
</g>
<!-- 11&#45;&gt;12 -->
<g id="edge17" class="edge"><title>11&#45;&gt;12</title>
<path fill="none" stroke="black" d="M1186.58,-362.852C1197.54,-355.908 1209.67,-347.389 1219.89,-339.467"/>
<polygon fill="black" stroke="black" points="1222.34,-341.988 1227.95,-333.001 1217.96,-336.527 1222.34,-341.988"/>
</g>
<!-- 12&#45;&gt;11 -->
<g id="edge14" class="edge"><title>12&#45;&gt;11</title>
<path fill="none" stroke="black" d="M1212.28,-329.441C1201.32,-336.385 1189.18,-344.904 1178.96,-352.826"/>
<polygon fill="black" stroke="black" points="1176.51,-350.305 1170.9,-359.292 1180.89,-355.766 1176.51,-350.305"/>
</g>
<!-- 17 -->
<g id="node16" class="node"><title>17</title>
<ellipse fill="azure" stroke="blue" cx="466.569" cy="-155.815" rx="47.3916" ry="18"/>
<text text-anchor="middle" x="466.569" y="-152.115" font-family="ヒラギノ丸ゴ ProN" font-size="14.00">田中琴葉</text>
</g>
<!-- 17&#45;&gt;15 -->
<g id="edge21" class="edge"><title>17&#45;&gt;15</title>
<path fill="none" stroke="black" d="M472.044,-173.948C477.276,-191.274 485.237,-217.641 491.281,-237.658"/>
<polygon fill="black" stroke="black" points="488.001,-238.904 494.242,-247.465 494.702,-236.881 488.001,-238.904"/>
</g>
<!-- 26 -->
<g id="node17" class="node"><title>26</title>
<ellipse fill="azure" stroke="blue" cx="342.535" cy="-339.42" rx="56.59" ry="18"/>
<text text-anchor="middle" x="342.535" y="-335.72" font-family="ヒラギノ丸ゴ ProN" font-size="14.00">七尾百合子</text>
</g>
<!-- 26&#45;&gt;15 -->
<g id="edge22" class="edge"><title>26&#45;&gt;15</title>
<path fill="none" stroke="black" d="M374.345,-324.486C399.193,-312.821 433.851,-296.551 460.432,-284.072"/>
<polygon fill="black" stroke="black" points="462.262,-287.079 469.827,-279.661 459.287,-280.743 462.262,-287.079"/>
</g>
<!-- 26&#45;&gt;16 -->
<g id="edge24" class="edge"><title>26&#45;&gt;16</title>
<path fill="none" stroke="black" d="M286.429,-336.269C263.441,-334.978 237.101,-333.499 214.993,-332.258"/>
<polygon fill="black" stroke="black" points="215.018,-328.754 204.838,-331.688 214.626,-335.743 215.018,-328.754"/>
</g>
<!-- 20 -->
<g id="node21" class="node"><title>20</title>
<ellipse fill="azure" stroke="blue" cx="260.505" cy="-286.263" rx="38.1938" ry="18"/>
<text text-anchor="middle" x="260.505" y="-282.563" font-family="ヒラギノ丸ゴ ProN" font-size="14.00">所恵美</text>
</g>
<!-- 26&#45;&gt;20 -->
<g id="edge25" class="edge"><title>26&#45;&gt;20</title>
<path fill="none" stroke="black" d="M317.478,-323.182C309.365,-317.925 300.265,-312.028 291.76,-306.517"/>
<polygon fill="black" stroke="black" points="293.474,-303.457 283.178,-300.956 289.667,-309.331 293.474,-303.457"/>
</g>
<!-- 24 -->
<g id="node24" class="node"><title>24</title>
<ellipse fill="azure" stroke="blue" cx="276.075" cy="-192.613" rx="47.3916" ry="18"/>
<text text-anchor="middle" x="276.075" y="-188.913" font-family="ヒラギノ丸ゴ ProN" font-size="14.00">望月杏奈</text>
</g>
<!-- 26&#45;&gt;24 -->
<g id="edge30" class="edge"><title>26&#45;&gt;24</title>
<path fill="none" stroke="black" d="M339.207,-321.32C330.55,-295.693 309.695,-248.767 294.138,-219.193"/>
<polygon fill="black" stroke="black" points="297.135,-217.376 289.296,-210.249 290.979,-220.709 297.135,-217.376"/>
</g>
<!-- 41 -->
<g id="node31" class="node"><title>41</title>
<ellipse fill="azure" stroke="blue" cx="514.425" cy="-446.766" rx="47.3916" ry="18"/>
<text text-anchor="middle" x="514.425" y="-443.066" font-family="ヒラギノ丸ゴ ProN" font-size="14.00">豊川風花</text>
</g>
<!-- 26&#45;&gt;41 -->
<g id="edge47" class="edge"><title>26&#45;&gt;41</title>
<path fill="none" stroke="black" d="M368.269,-355.49C398.231,-374.202 447.814,-405.167 480.799,-425.766"/>
<polygon fill="black" stroke="black" points="479.297,-428.955 489.633,-431.283 483.005,-423.017 479.297,-428.955"/>
</g>
<!-- 33 -->
<g id="node35" class="node"><title>33</title>
<ellipse fill="azure" stroke="blue" cx="226.371" cy="-408.726" rx="47.3916" ry="18"/>
<text text-anchor="middle" x="226.371" y="-405.026" font-family="ヒラギノ丸ゴ ProN" font-size="14.00">北沢志保</text>
</g>
<!-- 26&#45;&gt;33 -->
<g id="edge36" class="edge"><title>26&#45;&gt;33</title>
<path fill="none" stroke="black" d="M315.885,-355.32C299.571,-365.053 278.523,-377.611 260.936,-388.104"/>
<polygon fill="black" stroke="black" points="258.893,-385.247 252.099,-393.377 262.48,-391.259 258.893,-385.247"/>
</g>
<!-- 43 -->
<g id="node44" class="node"><title>43</title>
<ellipse fill="azure" stroke="blue" cx="324.764" cy="-452.769" rx="56.59" ry="18"/>
<text text-anchor="middle" x="324.764" y="-449.069" font-family="ヒラギノ丸ゴ ProN" font-size="14.00">福田のり子</text>
</g>
<!-- 26&#45;&gt;43 -->
<g id="edge48" class="edge"><title>26&#45;&gt;43</title>
<path fill="none" stroke="black" d="M339.68,-357.631C336.843,-375.726 332.453,-403.726 329.169,-424.672"/>
<polygon fill="black" stroke="black" points="325.703,-424.181 327.612,-434.603 332.619,-425.266 325.703,-424.181"/>
</g>
<!-- 18 -->
<g id="node19" class="node"><title>18</title>
<ellipse fill="azure" stroke="blue" cx="968.545" cy="-618" rx="56.59" ry="18"/>
<text text-anchor="middle" x="968.545" y="-614.3" font-family="ヒラギノ丸ゴ ProN" font-size="14.00">島原エレナ</text>
</g>
<!-- 19 -->
<g id="node20" class="node"><title>19</title>
<ellipse fill="azure" stroke="blue" cx="704.545" cy="-90" rx="56.59" ry="18"/>
<text text-anchor="middle" x="704.545" y="-86.3" font-family="ヒラギノ丸ゴ ProN" font-size="14.00">佐竹美奈子</text>
</g>
<!-- 21 -->
<g id="node22" class="node"><title>21</title>
<ellipse fill="azure" stroke="blue" cx="872.545" cy="-66" rx="56.59" ry="18"/>
<text text-anchor="middle" x="872.545" y="-62.3" font-family="ヒラギノ丸ゴ ProN" font-size="14.00">徳川まつり</text>
</g>
<!-- 22 -->
<g id="node23" class="node"><title>22</title>
<ellipse fill="azure" stroke="blue" cx="219.776" cy="-90" rx="56.59" ry="18"/>
<text text-anchor="middle" x="219.776" y="-86.3" font-family="ヒラギノ丸ゴ ProN" font-size="14.00">箱崎星梨花</text>
</g>
<!-- 24&#45;&gt;26 -->
<g id="edge31" class="edge"><title>24&#45;&gt;26</title>
<path fill="none" stroke="black" d="M279.404,-210.712C288.06,-236.339 308.915,-283.265 324.472,-312.84"/>
<polygon fill="black" stroke="black" points="321.475,-314.656 329.315,-321.783 327.631,-311.323 321.475,-314.656"/>
</g>
<!-- 24&#45;&gt;22 -->
<g id="edge26" class="edge"><title>24&#45;&gt;22</title>
<path fill="none" stroke="black" d="M266.269,-174.739C257.523,-158.798 244.593,-135.232 234.587,-116.995"/>
<polygon fill="black" stroke="black" points="237.538,-115.097 229.659,-108.013 231.401,-118.464 237.538,-115.097"/>
</g>
<!-- 25 -->
<g id="node26" class="node"><title>25</title>
<ellipse fill="azure" stroke="blue" cx="773.247" cy="-210" rx="29.4969" ry="18"/>
<text text-anchor="middle" x="773.247" y="-206.3" font-family="ヒラギノ丸ゴ ProN" font-size="14.00">ロコ</text>
</g>
<!-- 27 -->
<g id="node27" class="node"><title>27</title>
<ellipse fill="azure" stroke="blue" cx="800.545" cy="-618" rx="56.59" ry="18"/>
<text text-anchor="middle" x="800.545" y="-614.3" font-family="ヒラギノ丸ゴ ProN" font-size="14.00">高山紗代子</text>
</g>
<!-- 28 -->
<g id="node28" class="node"><title>28</title>
<ellipse fill="azure" stroke="blue" cx="440.545" cy="-90" rx="56.59" ry="18"/>
<text text-anchor="middle" x="440.545" y="-86.3" font-family="ヒラギノ丸ゴ ProN" font-size="14.00">松田亜利沙</text>
</g>
<!-- 29 -->
<g id="node29" class="node"><title>29</title>
<ellipse fill="azure" stroke="blue" cx="503.446" cy="-642" rx="47.3916" ry="18"/>
<text text-anchor="middle" x="503.446" y="-638.3" font-family="ヒラギノ丸ゴ ProN" font-size="14.00">高坂海美</text>
</g>
<!-- 41&#45;&gt;30 -->
<g id="edge34" class="edge"><title>41&#45;&gt;30</title>
<path fill="none" stroke="black" d="M560.466,-442.196C595.411,-438.728 643.316,-433.973 678.71,-430.46"/>
<polygon fill="black" stroke="black" points="679.196,-433.929 688.801,-429.458 678.504,-426.963 679.196,-433.929"/>
</g>
<!-- 46 -->
<g id="node47" class="node"><title>46</title>
<ellipse fill="azure" stroke="blue" cx="520.401" cy="-572.833" rx="47.3916" ry="18"/>
<text text-anchor="middle" x="520.401" y="-569.133" font-family="ヒラギノ丸ゴ ProN" font-size="14.00">百瀬莉緒</text>
</g>
<!-- 41&#45;&gt;46 -->
<g id="edge49" class="edge"><title>41&#45;&gt;46</title>
<path fill="none" stroke="black" d="M515.281,-464.828C516.271,-485.704 517.911,-520.312 519.068,-544.717"/>
<polygon fill="black" stroke="black" points="515.576,-544.981 519.546,-554.804 522.569,-544.65 515.576,-544.981"/>
</g>
<!-- 48 -->
<g id="node49" class="node"><title>48</title>
<ellipse fill="azure" stroke="blue" cx="424.191" cy="-528.789" rx="47.3916" ry="18"/>
<text text-anchor="middle" x="424.191" y="-525.089" font-family="ヒラギノ丸ゴ ProN" font-size="14.00">北上麗花</text>
</g>
<!-- 41&#45;&gt;48 -->
<g id="edge50" class="edge"><title>41&#45;&gt;48</title>
<path fill="none" stroke="black" d="M495.728,-463.761C482.575,-475.718 464.795,-491.88 450.251,-505.1"/>
<polygon fill="black" stroke="black" points="447.6,-502.78 442.555,-512.096 452.309,-507.96 447.6,-502.78"/>
</g>
<!-- 49 -->
<g id="node32" class="node"><title>49</title>
<ellipse fill="azure" stroke="blue" cx="680.543" cy="-546.63" rx="47.3916" ry="18"/>
<text text-anchor="middle" x="680.543" y="-542.93" font-family="ヒラギノ丸ゴ ProN" font-size="14.00">周防桃子</text>
</g>
<!-- 49&#45;&gt;30 -->
<g id="edge35" class="edge"><title>49&#45;&gt;30</title>
<path fill="none" stroke="black" d="M687.341,-528.787C694.928,-508.871 707.297,-476.404 716.126,-453.229"/>
<polygon fill="black" stroke="black" points="719.497,-454.212 719.786,-443.621 712.955,-451.72 719.497,-454.212"/>
</g>
<!-- 31 -->
<g id="node33" class="node"><title>31</title>
<ellipse fill="azure" stroke="blue" cx="584.545" cy="-378" rx="56.59" ry="18"/>
<text text-anchor="middle" x="584.545" y="-374.3" font-family="ヒラギノ丸ゴ ProN" font-size="14.00">天空橋朋花</text>
</g>
<!-- 32 -->
<g id="node34" class="node"><title>32</title>
<ellipse fill="azure" stroke="blue" cx="695.446" cy="-18" rx="47.3916" ry="18"/>
<text text-anchor="middle" x="695.446" y="-14.3" font-family="ヒラギノ丸ゴ ProN" font-size="14.00">エミリー</text>
</g>
<!-- 42 -->
<g id="node43" class="node"><title>42</title>
<ellipse fill="azure" stroke="blue" cx="1031.45" cy="-18" rx="47.3916" ry="18"/>
<text text-anchor="middle" x="1031.45" y="-14.3" font-family="ヒラギノ丸ゴ ProN" font-size="14.00">宮尾美也</text>
</g>
<!-- 44 -->
<g id="node45" class="node"><title>44</title>
<ellipse fill="azure" stroke="blue" cx="1031.45" cy="-690" rx="47.3916" ry="18"/>
<text text-anchor="middle" x="1031.45" y="-686.3" font-family="ヒラギノ丸ゴ ProN" font-size="14.00">真壁瑞希</text>
</g>
<!-- 45 -->
<g id="node46" class="node"><title>45</title>
<ellipse fill="azure" stroke="blue" cx="887.446" cy="-690" rx="47.3916" ry="18"/>
<text text-anchor="middle" x="887.446" y="-686.3" font-family="ヒラギノ丸ゴ ProN" font-size="14.00">篠宮可憐</text>
</g>
<!-- 47 -->
<g id="node48" class="node"><title>47</title>
<ellipse fill="azure" stroke="blue" cx="374.347" cy="-666" rx="38.1938" ry="18"/>
<text text-anchor="middle" x="374.347" y="-662.3" font-family="ヒラギノ丸ゴ ProN" font-size="14.00">永吉昴</text>
</g>
<!-- 50 -->
<g id="node50" class="node"><title>50</title>
<ellipse fill="azure" stroke="blue" cx="647.446" cy="-618" rx="47.3916" ry="18"/>
<text text-anchor="middle" x="647.446" y="-614.3" font-family="ヒラギノ丸ゴ ProN" font-size="14.00">ジュリア</text>
</g>
</g>
</svg>
